# xmcd CD database file generated by Grip 2.8
# 
# Track frame offsets:
#       183
#       31725
#       63308
#       88950
#       112823
#       160118
#       207178
#       237615
#       283848
# 
# Disc length: 4720 seconds
# 
# Revision: 3
# Processed by: cddbd v1.4b41PL1 Copyright (c) Steve Scherf et al.
# Submitted via: Grip 2.8
# 
DISCID=78126e09
DTITLE=Eric Clapton - Stormy Monday Blues
DYEAR=1900
DGENRE=
TTITLE0=Layla
TTITLE1=Further On Up The Road
TTITLE2=Knockin' On Heaven's Door
TTITLE3=Can't Find My Way Home
TTITLE4=Tell The Truth
TTITLE5=Why Does Love Got To Be So Sad
TTITLE6=Teach Me To Be Your Woman
TTITLE7=Badge
TTITLE8=Jam Session
EXTD=
EXTT0=
EXTT1=
EXTT2=
EXTT3=
EXTT4=
EXTT5=
EXTT6=
EXTT7=
EXTT8=
PLAYORDER=
